<svg xmlns="http://www.w3.org/2000/svg" viewBox="0 0 1200 720"><rect width="1200" height="720" fill="#e8eee6"/><rect x="82" y="74" width="1036" height="572" rx="28" fill="#f7f8f5" stroke="#9eada4" stroke-width="4"/><path d="M180 542V228l150-92 150 92v314z" fill="#d8e3d7" stroke="#17231d" stroke-width="8" stroke-linejoin="round"/><g fill="#f7f8f5" stroke="#52675c" stroke-width="5"><rect x="235" y="270" width="66" height="68" rx="4"/><rect x="355" y="270" width="66" height="68" rx="4"/><rect x="235" y="382" width="66" height="68" rx="4"/><rect x="355" y="382" width="66" height="68" rx="4"/></g><path d="M576 526V196M576 526h450" stroke="#9eada4" stroke-width="5"/><path d="m620 468 82-74 75 30 94-143 110-61" fill="none" stroke="#305744" stroke-width="12" stroke-linecap="round" stroke-linejoin="round"/><g fill="#305744"><circle cx="620" cy="468" r="13"/><circle cx="702" cy="394" r="13"/><circle cx="777" cy="424" r="13"/><circle cx="871" cy="281" r="13"/><circle cx="981" cy="220" r="13"/></g></svg>
