<svg xmlns="http://www.w3.org/2000/svg" viewBox="0 0 1200 720"><rect width="1200" height="720" fill="#eef2ec"/><g stroke="#9eada4" stroke-width="4"><rect x="78" y="104" width="310" height="512" rx="24" fill="#fff"/><rect x="445" y="104" width="310" height="512" rx="24" fill="#fff"/><rect x="812" y="104" width="310" height="512" rx="24" fill="#fff"/></g><g fill="#d8e3d7" stroke="#17231d" stroke-width="7"><path d="M142 430V260l91-58 91 58v170z"/><path d="M509 430V240l91-58 91 58v190z"/><path d="M876 430V216l91-58 91 58v214z"/></g><g fill="#305744"><rect x="142" y="488" width="182" height="28" rx="14"/><rect x="509" y="488" width="132" height="28" rx="14"/><rect x="876" y="488" width="84" height="28" rx="14"/></g><g fill="none" stroke="#52675c" stroke-width="6" stroke-linecap="round"><path d="M180 560h106"/><path d="M547 560h106"/><path d="M914 560h106"/></g></svg>
