<svg xmlns="http://www.w3.org/2000/svg" viewBox="0 0 1200 720"><rect width="1200" height="720" fill="#e8eee6"/><rect x="92" y="92" width="420" height="536" rx="24" fill="#fff" stroke="#9eada4" stroke-width="5"/><path d="M92 180h420M218 180v448M350 180v448" stroke="#cbd5cd" stroke-width="4"/><path d="M92 268h420M92 356h420M92 444h420M92 532h420" stroke="#cbd5cd" stroke-width="4"/><g fill="#52675c"><rect x="118" y="208" width="72" height="32" rx="7"/><rect x="244" y="296" width="76" height="32" rx="7"/><rect x="376" y="384" width="96" height="32" rx="7"/></g><path d="M548 360h112" stroke="#305744" stroke-width="12" stroke-linecap="round"/><path d="m632 326 36 34-36 34" fill="none" stroke="#305744" stroke-width="12" stroke-linecap="round" stroke-linejoin="round"/><path d="M730 566V236l176-108 176 108v330z" fill="#d8e3d7" stroke="#17231d" stroke-width="8" stroke-linejoin="round"/><g fill="#fff" stroke="#52675c" stroke-width="5"><rect x="790" y="286" width="76" height="72" rx="5"/><rect x="946" y="286" width="76" height="72" rx="5"/><rect x="790" y="408" width="76" height="72" rx="5"/><rect x="946" y="408" width="76" height="72" rx="5"/></g></svg>
