<svg xmlns="http://www.w3.org/2000/svg" viewBox="0 0 1200 720"><rect width="1200" height="720" fill="#eef2ec"/><rect x="88" y="82" width="1024" height="556" rx="28" fill="#fff" stroke="#cbd5cd" stroke-width="4"/><path d="M176 542V168M176 542h852" stroke="#9eada4" stroke-width="5"/><path d="M220 442c110-196 205-88 310-196s222-55 296 24 132 16 178-54" fill="none" stroke="#305744" stroke-width="12" stroke-linecap="round"/><path d="M220 482c112-118 204-68 308-119s208 18 302 62 128 20 174-18" fill="none" stroke="#74837b" stroke-width="10" stroke-linecap="round" stroke-dasharray="22 18"/><path d="M704 301v124" stroke="#8c2f26" stroke-width="6"/><path d="m686 321 18-20 18 20M686 405l18 20 18-20" fill="none" stroke="#8c2f26" stroke-width="6" stroke-linecap="round" stroke-linejoin="round"/><circle cx="704" cy="363" r="42" fill="#f7f8f5" stroke="#8c2f26" stroke-width="5"/></svg>
