<svg xmlns="http://www.w3.org/2000/svg" viewBox="0 0 1200 720"><rect width="1200" height="720" fill="#e8eee6"/><circle cx="600" cy="360" r="234" fill="#f7f8f5" stroke="#17231d" stroke-width="10"/><g fill="#52675c"><path d="M574 70h52l14 74h-80zM574 576h52l14 74h-80zM310 334v52l-74 14v-80zM816 334v52l74 14v-80z"/><path d="m390 126 37-37 63 42-57 57zM710 532l37-37 63 42-57 57zM710 188l-57-57 63-42 37 37zM390 594l-57-57 63-42 37 37z"/></g><circle cx="600" cy="360" r="138" fill="#d8e3d7" stroke="#305744" stroke-width="9"/><path d="M520 438V282h98c62 0 94 25 94 72 0 34-18 56-54 66l68 82h-70l-58-74h-22v74zm56-62h38c27 0 41-8 41-25 0-16-14-24-41-24h-38z" fill="#17231d" transform="translate(0 -32)"/></svg>
