<svg xmlns="http://www.w3.org/2000/svg" viewBox="0 0 1200 720"><rect width="1200" height="720" fill="#e8eee6"/><path d="M150 566V260l168-104 168 104v306z" fill="#f7f8f5" stroke="#17231d" stroke-width="8"/><g fill="#d8e3d7" stroke="#52675c" stroke-width="5"><rect x="208" y="302" width="72" height="72" rx="5"/><rect x="356" y="302" width="72" height="72" rx="5"/><rect x="208" y="424" width="72" height="72" rx="5"/><rect x="356" y="424" width="72" height="72" rx="5"/></g><circle cx="786" cy="332" r="184" fill="#f7f8f5" stroke="#305744" stroke-width="9"/><path d="M786 210c-74 34-112 84-112 150 0 78 50 126 112 148 62-22 112-70 112-148 0-66-38-116-112-150z" fill="#d8e3d7"/><path d="M786 260v250M786 386l-72-62M786 430l82-74" fill="none" stroke="#305744" stroke-width="12" stroke-linecap="round"/><path d="M1018 250v278M958 468l60 60 60-60" fill="none" stroke="#17231d" stroke-width="12" stroke-linecap="round" stroke-linejoin="round"/></svg>
